<svg><symbol id="ViktorHubjuejin" viewBox="0 0 1024 1024"><path d="M465.188571 161.792c-22.966857 18.139429-44.324571 35.108571-47.396571 37.741714l-5.851429 4.681143 10.971429 8.630857c5.997714 4.827429 11.849143 9.508571 13.019429 10.532572 1.170286 1.024 17.993143 14.336 37.156571 29.696l34.962286 27.794285 5.266285-3.949714c2.925714-2.194286 23.259429-18.432 45.348572-35.986286 21.942857-17.554286 41.252571-32.768 42.715428-33.645714 1.609143-1.024 2.779429-2.194286 2.779429-2.779428 0-0.438857-9.654857-8.630857-21.504-17.846858-11.995429-9.362286-22.674286-17.846857-23.844571-18.870857-15.945143-13.019429-49.737143-39.058286-50.761143-39.058285-0.585143 0.146286-19.894857 14.921143-42.861715 33.060571zM698.514286 342.162286c-191.049143 151.113143-189.586286 149.942857-193.097143 147.748571-3.072-1.901714-11.556571-8.484571-64.073143-50.029714-9.069714-7.168-18.578286-14.774857-21.357714-16.822857-2.779429-2.194286-8.777143-6.875429-13.312-10.532572-4.681143-3.657143-10.678857-8.338286-13.312-10.532571-13.165714-10.24-71.094857-56.027429-102.107429-80.457143-5.851429-4.681143-11.410286-8.484571-12.141714-8.484571-0.731429 0-10.971429 7.753143-22.674286 17.115428-11.702857 9.508571-22.674286 18.285714-24.283428 19.456-1.755429 1.170286-5.12 3.949714-7.460572 6.144-2.340571 2.340571-4.827429 4.096-5.412571 4.096-3.072 0-0.731429 3.072 6.436571 8.777143 4.096 3.218286 8.777143 6.875429 10.093714 8.045714 1.316571 1.024 10.24 8.045714 19.748572 15.506286s23.259429 18.285714 30.427428 23.990857c19.309714 15.213714 31.890286 25.307429 127.853715 101.083429 47.835429 37.741714 88.795429 69.778286 90.843428 71.094857 3.657143 2.486857 3.949714 2.486857 7.460572-0.292572 1.901714-1.462857 9.216-7.168 16.091428-12.726857 6.875429-5.412571 14.774857-11.702857 17.554286-13.897143 30.134857-23.698286 80.018286-63.049143 81.773714-64.512 1.170286-1.024 12.434286-9.801143 24.868572-19.602285s37.888-29.696 56.32-44.324572c18.578286-14.628571 46.226286-36.425143 61.732571-48.566857 15.506286-12.141714 27.794286-22.528 27.501714-23.259428-0.877714-1.170286-57.636571-47.104-59.977142-48.274286-0.731429-0.438857-18.578286 12.726857-39.497143 29.257143z" fill="#007fff" ></path><path d="M57.929143 489.325714c-15.213714 12.288-28.525714 23.405714-29.696 24.576-2.340571 2.194286-5.412571-0.438857 80.018286 66.852572 33.206857 26.185143 32.621714 25.746286 57.636571 45.494857 10.386286 8.192 36.278857 28.672 57.782857 45.494857 38.180571 30.134857 44.909714 35.401143 52.662857 41.545143 2.048 1.755429 22.966857 18.139429 46.372572 36.571428 23.259429 18.432 74.166857 58.514286 112.932571 89.088 38.912 30.573714 71.094857 55.734857 71.826286 56.027429 0.731429 0.292571 7.460571-4.388571 14.921143-10.386286 21.796571-16.969143 90.258286-70.948571 101.522285-79.872 5.705143-4.534857 12.873143-10.24 15.945143-12.580571 3.072-2.486857 6.436571-5.12 7.314286-5.851429 0.877714-0.877714 11.849143-9.508571 24.283429-19.309714 20.772571-16.091429 59.099429-46.226286 64.365714-50.614857 1.170286-1.024 5.12-4.096 8.777143-6.875429 3.657143-2.779429 7.899429-6.290286 9.508571-7.606857 1.609143-1.316571 14.774857-11.702857 29.257143-23.113143 29.110857-22.820571 42.276571-33.206857 88.502857-69.632 17.261714-13.604571 32.475429-25.453714 33.645714-26.477714 2.486857-2.048 31.451429-24.868571 44.617143-35.254857 4.827429-3.657143 9.069714-7.168 9.508572-7.606857 0.438857-0.585143 5.997714-4.827429 12.434285-9.801143 6.436571-4.827429 13.165714-10.24 15.067429-11.849143l3.364571-2.925714-9.947428-7.753143c-5.412571-4.388571-10.24-8.192-10.678857-8.630857-1.170286-1.316571-22.381714-18.432-30.134857-24.283429-3.949714-3.072-7.314286-5.997714-7.606858-6.729143-1.316571-3.072-6.729143 0.146286-29.257142 17.993143-13.458286 10.532571-25.746286 20.187429-27.355429 21.504-1.609143 1.462857-10.532571 8.338286-19.748571 15.652572-9.216 7.168-17.115429 13.458286-17.554286 13.897142-0.438857 0.438857-6.582857 5.412571-13.897143 10.971429-7.168 5.558857-15.213714 11.702857-17.700571 13.750857-4.973714 4.096-5.412571 4.388571-20.333715 16.237714-5.558857 4.388571-11.264 8.777143-12.434285 9.801143-1.170286 1.024-20.333714 16.091429-42.422858 33.353143-22.089143 17.408-41.545143 32.768-43.154285 34.084572-1.609143 1.462857-14.482286 11.556571-28.525715 22.528s-40.813714 32.036571-59.538285 46.811428c-18.578286 14.774857-42.276571 33.353143-52.516572 41.398857s-23.259429 18.285714-28.964571 22.820572l-10.386286 8.338285-4.388571-3.072c-2.340571-1.755429-4.681143-3.510857-5.12-3.949714-0.438857-0.438857-4.973714-4.096-10.24-8.045714-11.849143-9.216-14.482286-11.264-16.676572-13.165714-0.877714-0.877714-4.242286-3.510857-7.460571-5.851429-3.218286-2.486857-6.144-4.681143-6.582857-5.12-0.438857-0.438857-6.875429-5.705143-14.482286-11.702857-7.606857-5.851429-14.921143-11.556571-16.091429-12.580572-1.316571-1.170286-17.115429-13.604571-35.254857-27.794285-17.993143-14.189714-35.108571-27.648-38.034285-29.842286-5.705143-4.681143-33.499429-26.624-125.074286-98.742857-34.523429-27.209143-72.704-57.344-84.845714-66.852572-49.737143-39.497143-55.149714-43.593143-56.905143-43.446857-0.877714 0-14.043429 10.24-29.257143 22.528z" fill="#007fff" ></path></symbol><symbol id="ViktorHublogoa7995ad" viewBox="0 0 2640 1024"><path d="M600.737684 204.341895L512.458105 134.736842l-92.213894 72.730947-4.796632 3.853474 97.010526 77.338948 97.333895-77.338948-9.054316-6.979368z m334.551579 269.958737l-423.073684 333.608421-422.804211-333.41979L26.947368 524.665263l485.268211 382.625684 485.537684-382.841263-62.464-50.149052z m-423.073684 27.055157l-230.238316-181.517473-62.437052 50.149052 292.648421 230.777264 292.944842-230.992843-62.437053-50.149052-230.480842 181.733052zM2421.544421 884.951579h89.519158v46.511158H2043.688421V884.951579h75.075368l-48.855578-285.399579-1.212632-7.033263 7.06021-1.158737 32.606316-5.335579 6.925474-1.131789 1.185684 6.925473 50.202948 293.133474h77.069473V531.402105h-225.064421V484.837053h225.091369v-153.519158h-150.069895V284.779789h353.28v46.538106H2290.957474v153.519158h251.850105v46.538105h-251.850105v353.549474h82.674526l50.176-293.133474 1.185684-6.925474 6.952421 1.13179 32.606316 5.335579 7.033263 1.158736-1.212631 7.006316-48.828632 285.426527z m-661.827368-15.171368v-227.84H1875.348211v-246.137264H1828.109474v199.599158h-68.392421V381.305263H1712.478316v214.096842H1645.136842v-199.599158H1597.898105v246.137264h114.607158v227.84h-67.368421V673.226105H1597.898105V916.318316h277.450106V673.226105H1828.109474v196.554106h-68.392421z m-394.34779-227.813053l-33.414737 32.794947-4.931368 4.850527-4.958316-4.850527-23.417263-22.851368-5.173895-5.066105 5.173895-5.066106 66.721684-65.482105v-271.629474h-58.287158V258.155789h58.287158V134.736842H1412.608v123.418947h68.176842v46.538106h-68.176842v225.253052l39.585684-38.831158 4.958316-4.850526 4.958316 4.850526 23.390316 22.851369 5.173894 5.039158-5.173894 5.093052-72.892632 71.518316v100.540632a517.658947 517.658947 0 0 1-21.288421 145.893052c-8.218947 27.863579-16.384 48.154947-22.797474 61.224421l-7.221894 14.551579-3.125895 6.224843-6.278737-2.991158-29.696-14.120421-6.467368-3.098948 3.152842-6.467368 7.194947-14.551579c1.024-2.074947 3.395368-7.383579 6.197895-14.362948 4.581053-11.533474 9.216-24.737684 13.527579-39.343157 12.234105-41.714526 19.563789-86.608842 19.563789-132.958316v-54.164211z m151.14779 278.474105l1.401263-6.871579 3.287579-15.898947c19.725474-95.312842 27.109053-302.349474 26.246737-554.415158h341.126736V134.736842H1497.680842l0.161684 7.248842 0.377263 16.518737a11088.896 11088.896 0 0 1 1.509053 303.831579c-1.832421 200.218947-9.539368 352.202105-24.818526 426.037895l-3.260632 15.898947-1.42821 6.979369 7.006315 1.374315 32.390737 6.467369 6.898527 1.347368z m30.800842-623.723789l-1.536-115.442527H1841.313684v115.442527H1547.317895z m980.506947 48.559158l4.769684-5.066106 22.447158-23.767579 4.958316-5.254736-5.389474-4.850527-187.553684-169.768421L2362.341053 134.736842h-195.988211l-4.769684 1.832421-187.553684 169.768421-5.362527 4.850527 4.985264 5.254736 22.393263 23.767579 4.769684 5.066106 5.146947-4.661895 178.068211-159.33979h160.633263l178.041263 159.33979 5.146947 4.661895z" fill="#006CFF" ></path></symbol><symbol id="ViktorHubyouxiang-heshang" viewBox="0 0 1024 1024"><path d="M842.9 211.6c39.5 0 71.6 32.1 71.6 71.6v459.1c0.1 39.3-31.9 71.2-71.1 71.2H183.7c-39.3 0-71.2-31.9-71.2-71.2V283.2c0-39.5 32.1-71.6 71.6-71.6h658.8z" fill="#FFA820" ></path><path d="M914.5 283.2c0-39.5-32.1-71.6-71.6-71.6h-34.4c59 65.7 97.6 150.1 105.9 243.2V283.2zM112.5 283.2V317c17.8-38.6 41.2-74.1 69.3-105.4-38.5 1.3-69.3 32.8-69.3 71.6zM112.5 668.5v73.8c0 39.3 31.9 71.2 71.2 71.2h38.7c-46.4-39.6-84.2-89-109.9-145zM914.5 742.3V530.7c-10.1 113-64.9 213.2-146.6 282.8h75.5c39.2 0 71.2-31.9 71.1-71.2z" fill="#FEB133" ></path><path d="M914.5 530.7v-75.9c-8.3-93.1-47-177.5-105.9-243.2h-80.1c68.6 66 111.2 158.7 111.2 261.4 0 156.3-98.9 289.5-237.5 340.5H768c81.6-69.6 136.4-169.7 146.5-282.8zM114.2 473c0-102.7 42.7-195.4 111.2-261.4H184c-0.8 0-1.6 0-2.3 0.1-28.1 31.3-51.5 66.7-69.3 105.4v351.4c25.8 56.1 63.5 105.5 110 145h129.3c-138.6-51-237.5-184.2-237.5-340.5z" fill="#FEB533" ></path><path d="M839.6 473c0-102.7-42.7-195.4-111.2-261.4h-84.8c72.5 55.6 119.3 143.1 119.3 241.6 0 168.1-136.2 304.3-304.3 304.3S154.3 621.2 154.3 453.2c0-98.4 46.8-186 119.3-241.6h-48.1c-68.6 66-111.2 158.7-111.2 261.4 0 156.3 98.9 289.5 237.5 340.5h250.4c138.6-51 237.4-184.2 237.4-340.5z" fill="#FEBA33" ></path><path d="M154.3 453.2c0 168.1 136.2 304.3 304.3 304.3s304.3-136.2 304.3-304.3c0-98.4-46.8-186-119.3-241.6h-96.8c82.5 39.7 139.5 124.1 139.5 221.8 0 135.8-110.1 246-246 246s-246-110.1-246-246c0-97.7 57-182.1 139.5-221.8h-60.2c-72.5 55.6-119.3 143.1-119.3 241.6z" fill="#FFBE34" ></path><path d="M194.3 433.4c0 135.8 110.1 246 246 246s246-110.1 246-246c0-97.7-57-182.1-139.5-221.8h-213c-82.5 39.7-139.5 124.1-139.5 221.8zM422.1 226c103.6 0 187.6 84 187.6 187.6s-84 187.6-187.6 187.6-187.6-84-187.6-187.6S318.5 226 422.1 226z" fill="#FFC234" ></path><path d="M422.1 601.2c103.6 0 187.6-84 187.6-187.6S525.7 226 422.1 226s-187.6 84-187.6 187.6 84 187.6 187.6 187.6z m-18.3-336.6c71.4 0 129.2 57.9 129.2 129.2S475.1 523 403.8 523s-129.2-57.9-129.2-129.2 57.8-129.2 129.2-129.2z" fill="#FFC734" ></path><path d="M312.43057 485.15682a129.2 129.2 0 1 0 182.713203-182.719581 129.2 129.2 0 1 0-182.713203 182.719581Z" fill="#FFCB34" ></path><path d="M843.4 822.5H183.7c-44.2 0-80.2-36-80.2-80.2V283.2c0-44.4 36.2-80.6 80.6-80.6h658.8c44.4 0 80.6 36.2 80.6 80.6v459.1c0.1 21.4-8.2 41.5-23.4 56.6-15.1 15.2-35.3 23.6-56.7 23.6zM184.1 220.6c-34.5 0-62.6 28.1-62.6 62.6v459.1c0 34.3 27.9 62.2 62.2 62.2h659.7c16.6 0 32.2-6.5 44-18.3 11.7-11.7 18.1-27.3 18.1-43.9V283.2c0-34.5-28.1-62.6-62.6-62.6H184.1z" fill="#FFA820" ></path><path d="M474.7 499.7L192.8 293.9c-12.1-8.8-6.3-29.3 8.2-29.3h624.9c14.6 0 20.3 20.5 8.2 29.3L552.3 499.7c-23.5 17.1-54.1 17.1-77.6 0z" fill="#FFE3B4" ></path><path d="M161.3 359.2v124.1c0 9.9 8.1 18 18 18s18-8.1 18-18V359.2c0-9.9-8.1-18-18-18s-18 8.1-18 18zM161.3 543.3v10.5c0 9.9 8.1 18 18 18s18-8.1 18-18v-10.5c0-9.9-8.1-18-18-18s-18 8-18 18z" fill="#FFFFFF" ></path></symbol><symbol id="ViktorHubyouxiang-dakai" viewBox="0 0 1024 1024"><path d="M831.7 839.4H192.3c-37.3 0-67.5-30.2-67.5-67.5v-337c0-36.1 18.1-69.7 48.2-89.6l301.8-199c22.5-14.9 51.8-14.9 74.3 0l301.8 199c30.1 19.9 48.2 53.5 48.2 89.6v337c0.1 37.3-30.2 67.5-67.4 67.5z" fill="#FF556E" ></path><path d="M622.3 194.6l-73.2-48.3c-6-4-12.5-6.9-19.3-8.8-6.6-0.3-13.2-0.4-19.8-0.4-5.1 0-10.2 0.1-15.3 0.3-7 1.8-13.7 4.8-19.9 8.9l-48.4 31.9c21.7-3.8 44-5.7 66.7-5.7 45.3 0 88.8 7.8 129.2 22.1zM124.8 434.9v4.3c10.6-32.3 25.3-62.7 43.5-90.6-27.3 20.2-43.5 52.2-43.5 86.3zM124.8 680.8v91.1c0 37.3 30.2 67.5 67.5 67.5h32.3c-45.2-43.4-79.8-97.7-99.8-158.6zM899.1 771.9v-337c0-36.1-18.1-69.7-48.2-89.6L777.7 297c63.9 69.1 102.9 161.5 102.9 263 0 109.8-45.7 208.9-119 279.4h70.1c18.4 0 35.1-7.4 47.2-19.3 6.1-9.4 11.9-19 17.4-28.8a68.4 68.4 0 0 0 2.8-19.4z" fill="#FF556E" ></path><path d="M142.6 541.8c0-101.1 45-191.7 116-252.9L173 345.3c-1.6 1.1-3.2 2.2-4.7 3.3-18.2 27.9-32.9 58.3-43.5 90.6v241.6c20 60.9 54.6 115.2 99.8 158.6h100.5c-108.3-55.1-182.5-167.7-182.5-297.6zM880.6 560c0-101.5-39-193.9-102.9-263L622.3 194.6c-40.4-14.3-83.9-22.1-129.2-22.1-22.8 0-45 2-66.7 5.7l-96.2 63.4c44.2-21.6 93.8-33.7 146.2-33.7 184.4 0 333.8 149.4 333.8 333.8 0 129.9-74.2 242.4-182.5 297.6h133.9c73.3-70.4 119-169.5 119-279.3z" fill="#FF5F71" ></path><path d="M810.2 541.8c0-184.4-149.4-333.8-333.8-333.8-52.5 0-102.1 12.1-146.2 33.7l-71.6 47.2c-71 61.2-116 151.8-116 252.9 0 129.9 74.2 242.4 182.5 297.6h302.6C736 784.3 810.2 671.7 810.2 541.8zM459.5 803.6c-154.6 0-280-125.4-280-280s125.4-280 280-280 280 125.4 280 280-125.4 280-280 280z" fill="#FF6974" ></path><path d="M459.5 243.6c-154.6 0-280 125.4-280 280s125.4 280 280 280 280-125.4 280-280-125.4-280-280-280z m-16.8 488.2c-125 0-226.4-101.4-226.4-226.4S317.7 279 442.7 279s226.4 101.4 226.4 226.4-101.4 226.4-226.4 226.4z" fill="#FF7377" ></path><path d="M442.7 279c-125 0-226.4 101.4-226.4 226.4s101.4 226.4 226.4 226.4 226.4-101.4 226.4-226.4S567.7 279 442.7 279z m-16.8 380.8c-95.3 0-172.6-77.3-172.6-172.6s77.3-172.6 172.6-172.6 172.6 77.3 172.6 172.6-77.3 172.6-172.6 172.6z" fill="#FF7E7A" ></path><path d="M425.9 314.6c-95.3 0-172.6 77.3-172.6 172.6s77.3 172.6 172.6 172.6 172.6-77.3 172.6-172.6-77.3-172.6-172.6-172.6z m-16.8 273.2c-65.7 0-118.9-53.2-118.9-118.9S343.4 350 409.1 350 528 403.3 528 468.9s-53.2 118.9-118.9 118.9z" fill="#FF887D" ></path><path d="M290.2 468.9a118.9 118.9 0 1 0 237.8 0 118.9 118.9 0 1 0-237.8 0Z" fill="#FF9280" ></path><path d="M831.7 848.4H192.3c-42.2 0-76.5-34.3-76.5-76.5v-337c0-39.2 19.5-75.5 52.2-97.1l301.8-199c25.6-16.9 58.6-16.9 84.2 0l301.8 199c32.7 21.6 52.2 57.9 52.2 97.1v337c0.1 20.4-7.9 39.6-22.3 54-14.3 14.6-33.5 22.5-54 22.5zM511.9 144.1c-11.2 0-22.4 3.2-32.2 9.7L178 352.8c-27.6 18.3-44.2 49-44.2 82.1v337c0 32.3 26.2 58.5 58.5 58.5h639.4c15.6 0 30.3-6.1 41.4-17.2 11-11 17.1-25.7 17-41.3v-337c0-33.1-16.5-63.8-44.2-82.1l-301.8-199c-9.7-6.4-20.9-9.7-32.2-9.7z" fill="#EF4868" ></path><path d="M473.2 615L191.3 425.5c-12.1-8.1-6.3-27 8.2-27h624.9c14.6 0 20.3 18.9 8.2 27L550.8 615a69.813 69.813 0 0 1-77.6 0z" fill="#FFC7C7" ></path><path d="M166.8 481.8v124.1c0 9.9 8.1 18 18 18s18-8.1 18-18V481.8c0-9.9-8.1-18-18-18s-18 8.1-18 18zM166.8 665.9v10.5c0 9.9 8.1 18 18 18s18-8.1 18-18v-10.5c0-9.9-8.1-18-18-18s-18 8-18 18z" fill="#FFFFFF" ></path></symbol><symbol id="ViktorHubyouxiang-heshang1" viewBox="0 0 1024 1024"><path d="M842.9 211.6c39.5 0 71.6 32.1 71.6 71.6v459.1c0.1 39.3-31.9 71.2-71.1 71.2H183.7c-39.3 0-71.2-31.9-71.2-71.2V283.2c0-39.5 32.1-71.6 71.6-71.6h658.8z" fill="#FF556E" ></path><path d="M914.5 283.2c0-39.5-32.1-71.6-71.6-71.6h-34.4c59 65.7 97.6 150.1 105.9 243.2l0.1-171.6zM112.5 283.2V317c17.8-38.6 41.2-74.1 69.3-105.4-38.5 1.3-69.3 32.8-69.3 71.6zM112.5 668.5v73.8c0 39.3 31.9 71.2 71.2 71.2h38.7c-46.4-39.6-84.2-89-109.9-145zM914.5 742.3V530.7c-10.1 113-64.9 213.2-146.6 282.8h75.5c39.2 0 71.2-31.9 71.1-71.2z" fill="#FF556E" ></path><path d="M914.5 530.7v-75.9c-8.3-93.1-47-177.5-105.9-243.2h-80.1c68.6 66 111.2 158.7 111.2 261.4 0 156.3-98.9 289.5-237.5 340.5H768c81.6-69.6 136.4-169.7 146.5-282.8zM114.2 473c0-102.7 42.7-195.4 111.2-261.4H184c-0.8 0-1.6 0-2.3 0.1-28.1 31.3-51.5 66.7-69.3 105.4v351.4c25.8 56.1 63.5 105.5 110 145h129.3c-138.6-51-237.5-184.2-237.5-340.5z" fill="#FF5F71" ></path><path d="M839.6 473c0-102.7-42.7-195.4-111.2-261.4h-84.8c72.5 55.6 119.3 143.1 119.3 241.6 0 168.1-136.2 304.3-304.3 304.3S154.3 621.2 154.3 453.2c0-98.4 46.8-186 119.3-241.6h-48.1c-68.6 66-111.2 158.7-111.2 261.4 0 156.3 98.9 289.5 237.5 340.5h250.4c138.6-51 237.4-184.2 237.4-340.5z" fill="#FF6974" ></path><path d="M154.3 453.2c0 168.1 136.2 304.3 304.3 304.3s304.3-136.2 304.3-304.3c0-98.4-46.8-186-119.3-241.6h-96.8c82.5 39.7 139.5 124.1 139.5 221.8 0 135.8-110.1 246-246 246s-246-110.1-246-246c0-97.7 57-182.1 139.5-221.8h-60.2c-72.5 55.6-119.3 143.1-119.3 241.6z" fill="#FF7377" ></path><path d="M194.3 433.4c0 135.8 110.1 246 246 246s246-110.1 246-246c0-97.7-57-182.1-139.5-221.8h-213c-82.5 39.7-139.5 124.1-139.5 221.8zM422.1 226c103.6 0 187.6 84 187.6 187.6s-84 187.6-187.6 187.6-187.6-84-187.6-187.6S318.5 226 422.1 226z" fill="#FF7E7A" ></path><path d="M422.1 601.2c103.6 0 187.6-84 187.6-187.6S525.7 226 422.1 226s-187.6 84-187.6 187.6 84 187.6 187.6 187.6z m-18.3-336.6c71.4 0 129.2 57.9 129.2 129.2S475.1 523 403.8 523s-129.2-57.9-129.2-129.2 57.8-129.2 129.2-129.2z" fill="#FF887D" ></path><path d="M274.6 393.8a129.2 129.2 0 1 0 258.4 0 129.2 129.2 0 1 0-258.4 0Z" fill="#FF9280" ></path><path d="M843.4 822.5H183.7c-44.2 0-80.2-36-80.2-80.2V283.2c0-44.4 36.2-80.6 80.6-80.6h658.8c44.4 0 80.6 36.2 80.6 80.6v459.1c0.1 21.4-8.2 41.5-23.4 56.6-15.1 15.2-35.3 23.6-56.7 23.6zM184.1 220.6c-34.5 0-62.6 28.1-62.6 62.6v459.1c0 34.3 27.9 62.2 62.2 62.2h659.7c16.6 0 32.2-6.5 44-18.3 11.7-11.7 18.1-27.3 18.1-43.9V283.2c0-34.5-28.1-62.6-62.6-62.6H184.1z" fill="#EF4868" ></path><path d="M474.7 499.7L192.8 293.9c-12.1-8.8-6.3-29.3 8.2-29.3h624.9c14.6 0 20.3 20.5 8.2 29.3L552.3 499.7c-23.5 17.1-54.1 17.1-77.6 0z" fill="#FFC7C7" ></path><path d="M161.3 359.2v124.1c0 9.9 8.1 18 18 18s18-8.1 18-18V359.2c0-9.9-8.1-18-18-18s-18 8.1-18 18zM161.3 543.3v10.5c0 9.9 8.1 18 18 18s18-8.1 18-18v-10.5c0-9.9-8.1-18-18-18s-18 8-18 18z" fill="#FFFFFF" ></path></symbol><symbol id="ViktorHubgithub" viewBox="0 0 1024 1024"><path d="M512.465 98.744c-236.05-2.401-429.41 187.034-431.998 423.242 0.894 183.912 120.176 346.283 295.332 402.018 21.6 3.93 29.451-9.04 29.451-20.436v-71.916c-120.17 25.545-145.7-56.59-145.7-56.59a112.364 112.364 0 0 0-47.914-62.089c-39.272-25.937 3.141-25.545 3.141-25.545a90.702 90.702 0 0 1 65.978 43.624c25.358 43.993 81.26 59.548 125.678 34.976a91.569 91.569 0 0 1 27.487-56.59c-95.825-10.615-196.36-46.768-196.36-209.067a163.13 163.13 0 0 1 43.591-114.358 148.652 148.652 0 0 1 4.32-111.609c15.896-35.223 36.525-11.397 117.815 43.229a419.24 419.24 0 0 1 216.002 0c82.471-54.626 117.82-43.229 117.82-43.229a148.657 148.657 0 0 1 4.32 111.61 163.145 163.145 0 0 1 45.945 113.57c0 162.695-101.321 198.458-196.36 209.067a98.273 98.273 0 0 1 29.452 78.594v115.933c0 13.752 7.856 24.756 29.457 20.43 174.63-56.071 293.466-218.106 294.545-401.622C941.878 285.778 748.52 96.343 512.465 98.744" fill="#231F20" ></path></symbol><symbol id="ViktorHubweixin1" viewBox="0 0 1024 1024"><path d="M1024 619.52c0-143.36-138.24-256-307.2-256s-307.2 112.64-307.2 256 138.24 256 307.2 256c30.72 0 61.44-5.12 92.16-10.24l97.28 51.2-25.6-76.8c87.04-51.2 143.36-128 143.36-220.16z m-414.72-40.96c-30.72 0-51.2-20.48-51.2-51.2s20.48-51.2 51.2-51.2 51.2 20.48 51.2 51.2c0 25.6-25.6 51.2-51.2 51.2z m209.92 0c-30.72 0-51.2-20.48-51.2-51.2s20.48-51.2 51.2-51.2 51.2 20.48 51.2 51.2c0 25.6-25.6 51.2-51.2 51.2z" fill="#4CBF00" ></path><path d="M358.4 609.28c0-158.72 153.6-286.72 348.16-286.72h15.36C680.96 189.44 542.72 87.04 368.64 87.04 163.84 87.04 0 225.28 0 394.24c0 107.52 66.56 204.8 168.96 256l-30.72 92.16L256 686.08c35.84 10.24 71.68 15.36 112.64 15.36h10.24c-15.36-30.72-20.48-61.44-20.48-92.16z m138.24-414.72c35.84 0 66.56 30.72 66.56 66.56s-30.72 66.56-66.56 66.56c-35.84-5.12-66.56-35.84-66.56-71.68s30.72-61.44 66.56-61.44z m-250.88 128c-35.84 0-61.44-30.72-61.44-66.56s30.72-66.56 66.56-66.56 61.44 30.72 61.44 66.56-30.72 66.56-66.56 66.56z" fill="#4CBF00" ></path></symbol></svg>